<?xml version="1.0" encoding="utf-8"?>
<!-- Generator: Adobe Illustrator 23.0.6, SVG Export Plug-In . SVG Version: 6.00 Build 0)  -->
<svg version="1.1" id="Ebene_1" xmlns="http://www.w3.org/2000/svg" xmlns:xlink="http://www.w3.org/1999/xlink" x="0px" y="0px"
	 viewBox="0 0 45.01 91.07" style="enable-background:new 0 0 45.01 91.07;" xml:space="preserve">
<style type="text/css">
	.st0{opacity:0.3;}
	.st1{fill:#FFFFFF;}
</style>
<g class="st0">
	<path class="st1" d="M45.01,22.88l0.05,45.48 M45.92,45.53 M45.39,67.88V46.44"/>
	<path class="st1" d="M45.01,22.51L45.01,22.51L45.01,22.51L22.5,0L0,22.5l0,46.06l22.5,22.5l22.51-22.51L45.01,22.51z M22.88,1.44
		L44.64,23.2v21.44L22.88,22.87V1.44z M0.38,23.19L22.13,1.44v21.44L0.38,44.62V23.19z M22.13,89.62L0.38,67.88V46.44l21.75,21.75
		V89.62z M0.53,45.53L22.5,23.56l21.97,21.97L22.5,67.5L0.53,45.53z M44.64,67.86L22.88,89.62V68.19l21.76-21.76V67.86z"/>
</g>
</svg>
